<svg id="Layer_1" data-name="Layer 1" xmlns="http://www.w3.org/2000/svg" width="110" height="110" viewBox="0 0 110 110"><title>fb-icon</title><path d="M107.9,55A52.9,52.9,0,1,0,55,107.9h1.8V71.5H45.2V57.1H56.8V45.5A17.3,17.3,0,0,1,74.1,28.2H85.7V42.7H79.9c-3.2,0-5.8-.3-5.8,2.8V57.1H88.5L82.7,71.5H74.1v32.9A53,53,0,0,0,107.9,55Z" fill="#44331c"/><path d="M82.7,71.5l5.8-14.4H74.1V45.5c0-3.1,2.6-2.8,5.8-2.8h5.8V28.2H74.1A17.3,17.3,0,0,0,56.8,45.5V57.1H45.2V71.5H56.8v36.4a54.9,54.9,0,0,0,17.3-3.5V71.5Z" fill="#fff"/></svg>