<svg xmlns="http://www.w3.org/2000/svg"><symbol id="dog-logo" viewBox="0 0 111 74.7"><path fill="#fff" stroke="#44331c" stroke-miterlimit="10" stroke-width="4.9" d="M104.8 23.1c-2.6-2.6-21 0-21 0-6.5-15.9-30-24.2-53.1-8.2C20.4 2.7 15.1 2 12.9 3.5c-16 10.8-1.8 66 10 67.6 3.7.5 54.5-.3 54.5-.3 9-3.3 26-13.4 27.4-19.1s4.8-23.8 0-28.6z"/><path fill="#e59238" d="M28.7 14.9c41.2-28 13.2 58.1-7 56.4-23.3-9.1-26.1-98.9 7-56.4z"/><path fill="none" stroke="#44331c" stroke-miterlimit="10" stroke-width="4.9" d="M104.8 23.1c-2.6-2.6-21 0-21 0-6.5-15.9-30-24.2-53.1-8.2C20.4 2.7 15.1 2 12.9 3.5c-16 10.8-1.8 66 10 67.6 3.7.5 54.5-.3 54.5-.3 9-3.3 26-13.4 27.4-19.1s4.8-23.8 0-28.6z"/><path fill="none" stroke="#44331c" stroke-linecap="round" stroke-miterlimit="10" stroke-width="4.9" d="M105.5 38c-2.1 19.7-4.6 21-28.2 19.2"/><path fill="#44331c" d="M98.9 22.4c13.4-2.1 7.9 16.5 3.7 16.5s-23.2-13.4-3.7-16.5z"/><circle cx="65" cy="30.6" r="5.2" fill="#44331c"/><circle cx="94.1" cy="45.6" r="1.3" fill="#44331c"/><circle cx="96.1" cy="50.5" r="1.3" fill="#44331c"/><circle cx="89.6" cy="49.2" r="1.3" fill="#44331c"/></symbol></svg>