<svg id="Layer_1" data-name="Layer 1" xmlns="http://www.w3.org/2000/svg" width="110" height="110" viewBox="0 0 110 110"><title>ig-icon</title><path d="M55.3,2.1A52.9,52.9,0,1,0,108.2,55,52.9,52.9,0,0,0,55.3,2.1ZM88.4,67.4A20.6,20.6,0,0,1,67.7,88.1H42.9A20.7,20.7,0,0,1,22.1,67.4V42.6A20.7,20.7,0,0,1,42.9,21.9H67.7A20.6,20.6,0,0,1,88.4,42.6Z" fill="#44331c"/><path d="M67.7,28.1H42.9A14.5,14.5,0,0,0,28.4,42.6V67.4A14.5,14.5,0,0,0,42.9,81.9H67.7A14.5,14.5,0,0,0,82.2,67.4V42.6A14.5,14.5,0,0,0,67.7,28.1ZM71.9,55A16.6,16.6,0,1,1,55.3,38.4,16.6,16.6,0,0,1,71.9,55Zm1.2-15.6a2.2,2.2,0,1,1,2.2-2.2A2.2,2.2,0,0,1,73.1,39.4Z" fill="#44331c"/><path d="M55.3,44.6a10.4,10.4,0,0,0,0,20.8h0a10.4,10.4,0,1,0,0-20.8Z" fill="#44331c"/></svg>