<svg id="Layer_1" data-name="Layer 1" xmlns="http://www.w3.org/2000/svg" width="206" height="153.6" viewBox="0 0 206 153.6"><title>logo</title><path d="M92.3,27.1c16,7.9,25,116-13.3,112.8C34.8,122.6,29.5-53.5,92.3,27.1Z" fill="#e59238" stroke="#44331c" stroke-miterlimit="10" stroke-width="9"/><path d="M194.6,56c-5-5-39.8,0-39.8,0-12.4-30.2-57-45.9-100.7-15.6C34.6,17.2,24.4,16,20.3,18.8-9.9,39.3,17,144,39.3,147c7,.9,103.3-.6,103.3-.6,17.1-6.3,49.3-25.3,52-36.1S203.6,65,194.6,56Z" fill="#fffaf4" stroke="#44331c" stroke-miterlimit="10" stroke-width="9.29"/><path d="M50.3,40.4c78.1-53.1,25,110.3-13.3,107C-7.2,130.2-12.5-40.2,50.3,40.4Z" fill="#e59238"/><path d="M194.6,56c-5-5-39.8,0-39.8,0-12.4-30.2-57-45.9-100.7-15.6C34.6,17.2,24.4,16,20.3,18.8-9.9,39.3,17,144,39.3,147c7,.9,103.3-.6,103.3-.6,17.1-6.3,49.3-25.3,52-36.1S203.6,65,194.6,56Z" fill="none" stroke="#44331c" stroke-miterlimit="10" stroke-width="9"/><path d="M196,84.1c-4,37.5-8.7,40-53.6,36.5" fill="none" stroke="#44331c" stroke-linecap="round" stroke-miterlimit="10" stroke-width="9.29"/><path d="M183.3,54.7c25.5-4.1,15.1,31.2,7.2,31.2S146.4,60.6,183.3,54.7Z" fill="#44331c"/><circle cx="119.1" cy="70.1" r="9.8" fill="#44331c"/><circle cx="174.4" cy="98.6" r="2.5" fill="#44331c"/><circle cx="178.2" cy="108" r="2.5" fill="#44331c"/><circle cx="165.8" cy="105.5" r="2.5" fill="#44331c"/></svg>