<svg id="Layer_1" data-name="Layer 1" xmlns="http://www.w3.org/2000/svg" width="206" height="153.6" viewBox="0 0 206 153.6"><title>logo</title><path d="M96.8,21.3c12.8,6.4,20.1,93.5-10.7,90.8C50.4,98.2,46.2-43.6,96.8,21.3Z" fill="#e59238" stroke="#44331c" stroke-miterlimit="10" stroke-width="7.25"/><path d="M179.2,44.6c-4-4-32.1,0-32.1,0C137.1,20.3,101.2,7.6,66,32,50.3,13.4,42.1,12.3,38.8,14.6,14.4,31.1,36.1,115.5,54.1,117.9c5.6.7,83.2-.5,83.2-.5,13.8-5.1,39.7-20.4,41.9-29.1S186.5,51.9,179.2,44.6Z" fill="#fffaf4" stroke="#44331c" stroke-miterlimit="10" stroke-width="7.48"/><path d="M62.9,32c63-42.7,20.2,88.8-10.7,86.2C16.6,104.3,12.3-32.9,62.9,32Z" fill="#e59238"/><path d="M179.2,44.6c-4-4-32.1,0-32.1,0C137.1,20.3,101.2,7.6,66,32,50.3,13.4,42.1,12.3,38.8,14.6,14.4,31.1,36.1,115.5,54.1,117.9c5.6.7,83.2-.5,83.2-.5,13.8-5.1,39.7-20.4,41.9-29.1S186.5,51.9,179.2,44.6Z" fill="none" stroke="#44331c" stroke-miterlimit="10" stroke-width="7.25"/><path d="M180.3,67.2c-3.2,30.2-7,32.2-43.2,29.4" fill="none" stroke="#44331c" stroke-linecap="round" stroke-miterlimit="10" stroke-width="7.49"/><path d="M170.1,43.5c20.5-3.2,12.1,25.1,5.7,25.1S140.3,48.2,170.1,43.5Z" fill="#44331c"/><circle cx="118.4" cy="55.9" r="7.9" fill="#44331c"/><circle cx="162.9" cy="78.9" r="2" fill="#44331c"/><circle cx="165.9" cy="86.4" r="2" fill="#44331c"/><circle cx="156" cy="84.4" r="2" fill="#44331c"/><path d="M19.1,142.4H14.7v5H11.2V134.2h8.5l.4,2.8H14.7v2.6h4.1Z" fill="#44331c"/><path d="M25,147.4H21.4V138h1.8l.8,1.1,1.6-.8,1.6-.3.7,2.8-1.5.3-1.4.7Z" fill="#44331c"/><path d="M38.1,143.6H32.4a1.3,1.3,0,0,0,.7.9,2.9,2.9,0,0,0,1.4.3,5.8,5.8,0,0,0,2.6-.6l1,2.4a5.4,5.4,0,0,1-1.7.7,8.3,8.3,0,0,1-2.2.3,7.3,7.3,0,0,1-3-.6,4.5,4.5,0,0,1-2-1.6,6,6,0,0,1-.7-2.7,5,5,0,0,1,.7-2.7,4.5,4.5,0,0,1,1.8-1.8,5.5,5.5,0,0,1,2.6-.6,4.9,4.9,0,0,1,2.5.7,4.5,4.5,0,0,1,1.5,1.8,6,6,0,0,1,.5,2.4Zm-5.8-1.8h2.4a1.6,1.6,0,0,0-.3-.9,1,1,0,0,0-.9-.4,1.2,1.2,0,0,0-.9.4A1.4,1.4,0,0,0,32.3,141.8Z" fill="#44331c"/><path d="M48.5,143.6H42.7a1.8,1.8,0,0,0,.8.9,2.6,2.6,0,0,0,1.4.3,6.2,6.2,0,0,0,2.6-.6l1,2.4a5.4,5.4,0,0,1-1.7.7,9.1,9.1,0,0,1-2.3.3,6.5,6.5,0,0,1-2.9-.6,4,4,0,0,1-2-1.6,5,5,0,0,1-.7-2.7,6,6,0,0,1,.6-2.7,5.5,5.5,0,0,1,1.9-1.8,5.3,5.3,0,0,1,2.6-.6,4.5,4.5,0,0,1,2.4.7,4,4,0,0,1,1.6,1.8,6,6,0,0,1,.5,2.4Zm-5.9-1.8h2.5a1.6,1.6,0,0,0-.3-.9,1.2,1.2,0,0,0-1.8,0A1.1,1.1,0,0,0,42.6,141.8Z" fill="#44331c"/><path d="M59,133.7v13.7H57.2l-.5-.7-1.2.7-1.4.2a4.5,4.5,0,0,1-4.9-4.9,5.1,5.1,0,0,1,1.4-3.8,5.3,5.3,0,0,1,3.6-1.3l1.3.2v-3.9Zm-5.7,10.6a1.6,1.6,0,0,0,2.2.3v-4a2,2,0,0,0-1-.2,1.4,1.4,0,0,0-1.2.6,3.9,3.9,0,0,0-.4,1.7A3.4,3.4,0,0,0,53.3,144.3Z" fill="#44331c"/><path d="M70.6,145.4a4.5,4.5,0,0,1-2,1.6,6,6,0,0,1-2.7.6,5.6,5.6,0,0,1-3.9-1.3,4.8,4.8,0,0,1-1.4-3.7,4.4,4.4,0,0,1,.7-2.6,4.7,4.7,0,0,1,1.9-1.8,6,6,0,0,1,2.7-.6,6.1,6.1,0,0,1,2.8.6,5.2,5.2,0,0,1,1.9,1.7,6.1,6.1,0,0,1,.7,2.8A6,6,0,0,1,70.6,145.4Zm-3.4-1.2a2.1,2.1,0,0,0,.4-1.5,2.7,2.7,0,0,0-.4-1.6,1.4,1.4,0,0,0-1.2-.6,1.5,1.5,0,0,0-1.3.6,2.3,2.3,0,0,0-.5,1.5,2.5,2.5,0,0,0,.5,1.6,1.5,1.5,0,0,0,1.2.5A1.5,1.5,0,0,0,67.2,144.2Z" fill="#44331c"/><path d="M88.7,141.3v6.1H85.1v-5.8a1.9,1.9,0,0,0-.1-.8c-.1-.2-.4-.3-.8-.3l-.8.2-1,.4v6.3H78.9v-5.8a1.9,1.9,0,0,0-.2-.8c-.1-.2-.3-.3-.7-.3l-.8.2-1,.4v6.3H72.6V138h2.1l.7.9a7.5,7.5,0,0,1,3.7-1.3,3,3,0,0,1,2.7,1.2,7,7,0,0,1,3.6-1.2C87.6,137.6,88.7,138.9,88.7,141.3Z" fill="#44331c"/><path d="M101.3,147.4H95.4V134.2h6a6.3,6.3,0,0,1,3.4.8,5.8,5.8,0,0,1,2.1,2.3,7.4,7.4,0,0,1,.7,3.4,6.5,6.5,0,0,1-.8,3.5,5.1,5.1,0,0,1-2.2,2.4A7.3,7.3,0,0,1,101.3,147.4Zm-.1-10.4H98.9v7.6h2.2a2.6,2.6,0,0,0,2.1-1,4.8,4.8,0,0,0,.8-2.9,4.6,4.6,0,0,0-.8-2.7A2.1,2.1,0,0,0,101.2,137Z" fill="#44331c"/><path d="M118.6,145.4a4,4,0,0,1-2,1.6,6,6,0,0,1-2.7.6,5.2,5.2,0,0,1-3.8-1.3,4.5,4.5,0,0,1-1.5-3.7,4.4,4.4,0,0,1,.7-2.6,4.7,4.7,0,0,1,1.9-1.8,6.4,6.4,0,0,1,2.8-.6,6,6,0,0,1,2.7.6,4.5,4.5,0,0,1,1.9,1.7,5.1,5.1,0,0,1,.7,2.8A5,5,0,0,1,118.6,145.4Zm-3.4-1.2a2.1,2.1,0,0,0,.4-1.5,2.7,2.7,0,0,0-.4-1.6,1.4,1.4,0,0,0-1.2-.6,1.5,1.5,0,0,0-1.3.6,2.2,2.2,0,0,0-.4,1.5,2.5,2.5,0,0,0,.4,1.6,1.7,1.7,0,0,0,1.2.5A1.4,1.4,0,0,0,115.2,144.2Z" fill="#44331c"/><path d="M129.9,138v9.7a4.4,4.4,0,0,1-.7,2.2,3.7,3.7,0,0,1-1.8,1.4,6,6,0,0,1-2.7.6l-2.2-.3a9.3,9.3,0,0,1-2.2-.8l1.1-2.5,1.6.6h1.4a2.1,2.1,0,0,0,1.4-.4,1.1,1.1,0,0,0,.5-.9v-.3l-1.4.2a5.1,5.1,0,0,1-3.5-1.2,4.9,4.9,0,0,1-1.3-3.7,5,5,0,0,1,1.3-3.8,5.4,5.4,0,0,1,3.7-1.3,3.5,3.5,0,0,1,2.5,1l.5-.6Zm-3.6,6.6v-4a2,2,0,0,0-1-.2,1.4,1.4,0,0,0-1.1.6,2.9,2.9,0,0,0-.5,1.7,2.5,2.5,0,0,0,.5,1.6,1.5,1.5,0,0,0,1.3.6Z" fill="#44331c"/><path d="M136.8,134.2h5.5a6,6,0,0,1,3.9,1.1,3.8,3.8,0,0,1,1.6,3.4,4.2,4.2,0,0,1-.5,2,4.7,4.7,0,0,1-1.3,1.5l2.9,5.2h-4.1l-2.1-4.2h-2.4v4.2h-3.5Zm5.4,2.8h-1.9v3.4h2a1.8,1.8,0,0,0,1.3-.4,1.7,1.7,0,0,0,.5-1.3,1.4,1.4,0,0,0-.5-1.3A2,2,0,0,0,142.2,137Z" fill="#44331c"/><path d="M159.1,143.6h-5.8a1.8,1.8,0,0,0,.8.9,2.6,2.6,0,0,0,1.4.3,6.2,6.2,0,0,0,2.6-.6l1,2.4a5.4,5.4,0,0,1-1.7.7,9.1,9.1,0,0,1-2.3.3,6.8,6.8,0,0,1-2.9-.6,4.5,4.5,0,0,1-2-1.6,5.6,5.6,0,0,1,0-5.4,4.5,4.5,0,0,1,1.8-1.8,5.3,5.3,0,0,1,2.6-.6,4.5,4.5,0,0,1,2.4.7,4,4,0,0,1,1.6,1.8,6,6,0,0,1,.5,2.4Zm-5.9-1.8h2.5a1.6,1.6,0,0,0-.3-.9,1,1,0,0,0-.9-.4,1.1,1.1,0,0,0-.9.4A1.5,1.5,0,0,0,153.2,141.8Z" fill="#44331c"/><path d="M159.9,146.5l1-2.2,1.4.4a3.2,3.2,0,0,0,1.3.2h.6l.2-.3-.3-.3-.6-.3a11.7,11.7,0,0,1-2.5-1.2,2.3,2.3,0,0,1-.9-1.9,2.7,2.7,0,0,1,1.1-2.3,4.8,4.8,0,0,1,3.1-.9l1.8.3a4.4,4.4,0,0,1,1.7.7l-1,2.3-1.2-.4-1.1-.2h-.7l-.3.3q0,.2.3.3l.7.3a8.9,8.9,0,0,1,2.4,1.3,2.2,2.2,0,0,1,.9,1.9,3,3,0,0,1-.9,2.3,5.1,5.1,0,0,1-3,.8l-2.1-.3A3.7,3.7,0,0,1,159.9,146.5Z" fill="#44331c"/><path d="M177,138.6l-1,2.4-1-.4h-.9a1.8,1.8,0,0,0-1.3.6,2.5,2.5,0,0,0-.5,1.6,2.5,2.5,0,0,0,.5,1.5,2.1,2.1,0,0,0,1.3.5h.9l1-.4,1,2.5a6.2,6.2,0,0,1-7-.4,4.9,4.9,0,0,1-1.4-3.6,4.5,4.5,0,0,1,.7-2.7,3.9,3.9,0,0,1,1.8-1.8,6,6,0,0,1,2.7-.6A4.7,4.7,0,0,1,177,138.6Z" fill="#44331c"/><path d="M184.5,138H188v9.4h-1.7l-1-1a7.2,7.2,0,0,1-3.9,1.3,2.9,2.9,0,0,1-2.5-1,3.6,3.6,0,0,1-.9-2.6V138h3.6v5.7c0,.4,0,.6.2.8s.4.4.8.4l.8-.2,1.1-.4Z" fill="#44331c"/><path d="M199,143.6h-5.8a1.6,1.6,0,0,0,.7.9,3.3,3.3,0,0,0,1.5.3,5.7,5.7,0,0,0,2.5-.6l1,2.4a4.8,4.8,0,0,1-1.6.7,9.1,9.1,0,0,1-2.3.3,6.5,6.5,0,0,1-2.9-.6,4,4,0,0,1-2-1.6,5,5,0,0,1-.7-2.7,6,6,0,0,1,.6-2.7,6.2,6.2,0,0,1,1.8-1.8,5.8,5.8,0,0,1,2.6-.6,4.9,4.9,0,0,1,2.5.7,3.4,3.4,0,0,1,1.5,1.8,4.8,4.8,0,0,1,.6,2.4Zm-5.9-1.8h2.5a1.6,1.6,0,0,0-.3-.9,1.3,1.3,0,0,0-1-.4.9.9,0,0,0-.8.4A1.1,1.1,0,0,0,193.1,141.8Z" fill="#44331c"/></svg>