<svg id="Layer_1" data-name="Layer 1" xmlns="http://www.w3.org/2000/svg" width="110" height="110" viewBox="0 0 110 110"><title>sc-icon</title><path d="M55.3,2.1A52.9,52.9,0,1,0,108.2,55,52.9,52.9,0,0,0,55.3,2.1ZM88.5,72.7a2.9,2.9,0,0,1-1.3,1.6,11.9,11.9,0,0,1-3.5,1.5l-3.7.8c-.2,0-.3.1-.3.2s-.3,1.5-.5,2.2a2.3,2.3,0,0,1-2.8,1.8l-2.7-.4a17,17,0,0,0-3.9.1,8.7,8.7,0,0,0-3.7,1.6c-1.2.8-2.4,1.7-3.6,2.4a13.7,13.7,0,0,1-5.1,1.9,14.2,14.2,0,0,1-9.8-2.2l-3.7-2.5a7.7,7.7,0,0,0-2.8-1.2,18.5,18.5,0,0,0-4.7,0l-2.1.4a2.5,2.5,0,0,1-2.9-1.8c-.1-.4-.1-.7-.2-1.1l-.3-1.2c0-.1-.1-.2-.3-.2L28,76.1a16.3,16.3,0,0,1-3.7-1.3,5.3,5.3,0,0,1-2-1.6,2.4,2.4,0,0,1,0-2.8,2.9,2.9,0,0,1,1.4-.8,13,13,0,0,0,6.8-3.2,20.6,20.6,0,0,0,5.8-7.6,6.4,6.4,0,0,0,.2-.7,1.5,1.5,0,0,0-.5-1.4,10,10,0,0,0-2.1-1,21.5,21.5,0,0,1-2.7-1,7.5,7.5,0,0,1-2-1.5,2.7,2.7,0,0,1,.1-3.8,4.1,4.1,0,0,1,4.2-1.2l1.5.5,1.6.3H37a6.2,6.2,0,0,1-.1-1.3,55.6,55.6,0,0,1-.2-7.1,16.8,16.8,0,0,1,.8-5.4,16.3,16.3,0,0,1,2.9-5.1,17.1,17.1,0,0,1,9.9-6,19.8,19.8,0,0,1,6.4-.5,19.1,19.1,0,0,1,7.8,1.9,17.7,17.7,0,0,1,8,8.2A12.5,12.5,0,0,1,73.7,38a38.7,38.7,0,0,1,.2,6.8l-.3,4.1h0a2,2,0,0,0,1.1-.1,10.4,10.4,0,0,0,1.6-.6,3.8,3.8,0,0,1,3.3,0,3.5,3.5,0,0,1,2,1.4,2.8,2.8,0,0,1-.5,3.8,7.8,7.8,0,0,1-3.2,1.8l-2.5.9-.9.6a1.2,1.2,0,0,0-.4,1.3,14.2,14.2,0,0,0,.8,1.8,18.8,18.8,0,0,0,4.9,6.3,14.5,14.5,0,0,0,6.4,3.3h.7A2.2,2.2,0,0,1,88.5,72.7Z" fill="#44331c"/></svg>