<svg xmlns="http://www.w3.org/2000/svg"><symbol id="sc-icon" viewBox="0 0 110 110"><path fill="#44331c" d="M55.3 2.1A52.9 52.9 0 1 0 108.2 55 52.9 52.9 0 0 0 55.3 2.1zm33.2 70.6a2.9 2.9 0 0 1-1.3 1.6 11.9 11.9 0 0 1-3.5 1.5l-3.7.8c-.2 0-.3.1-.3.2s-.3 1.5-.5 2.2a2.3 2.3 0 0 1-2.8 1.8l-2.7-.4a17 17 0 0 0-3.9.1 8.7 8.7 0 0 0-3.7 1.6c-1.2.8-2.4 1.7-3.6 2.4a13.7 13.7 0 0 1-5.1 1.9 14.2 14.2 0 0 1-9.8-2.2l-3.7-2.5a7.7 7.7 0 0 0-2.8-1.2 18.5 18.5 0 0 0-4.7 0l-2.1.4a2.5 2.5 0 0 1-2.9-1.8c-.1-.4-.1-.7-.2-1.1l-.3-1.2c0-.1-.1-.2-.3-.2l-2.6-.5a16.3 16.3 0 0 1-3.7-1.3 5.3 5.3 0 0 1-2-1.6 2.4 2.4 0 0 1 0-2.8 2.9 2.9 0 0 1 1.4-.8 13 13 0 0 0 6.8-3.2 20.6 20.6 0 0 0 5.8-7.6 6.4 6.4 0 0 0 .2-.7 1.5 1.5 0 0 0-.5-1.4 10 10 0 0 0-2.1-1 21.5 21.5 0 0 1-2.7-1 7.5 7.5 0 0 1-2-1.5 2.7 2.7 0 0 1 .1-3.8 4.1 4.1 0 0 1 4.2-1.2l1.5.5 1.6.3h.4a6.2 6.2 0 0 1-.1-1.3 55.6 55.6 0 0 1-.2-7.1 16.8 16.8 0 0 1 .8-5.4 16.3 16.3 0 0 1 2.9-5.1 17.1 17.1 0 0 1 9.9-6 19.8 19.8 0 0 1 6.4-.5 19.1 19.1 0 0 1 7.8 1.9 17.7 17.7 0 0 1 8 8.2 12.5 12.5 0 0 1 1.2 4.3 38.7 38.7 0 0 1 .2 6.8l-.3 4.1a2 2 0 0 0 1.1-.1 10.4 10.4 0 0 0 1.6-.6 3.8 3.8 0 0 1 3.3 0 3.5 3.5 0 0 1 2 1.4 2.8 2.8 0 0 1-.5 3.8 7.8 7.8 0 0 1-3.2 1.8l-2.5.9-.9.6a1.2 1.2 0 0 0-.4 1.3 14.2 14.2 0 0 0 .8 1.8 18.8 18.8 0 0 0 4.9 6.3 14.5 14.5 0 0 0 6.4 3.3h.7a2.2 2.2 0 0 1 1.6 3.3z"/></symbol><symbol id="ig-icon" viewBox="0 0 110 110"><path fill="#44331c" d="M55.3 2.1A52.9 52.9 0 1 0 108.2 55 52.9 52.9 0 0 0 55.3 2.1zm33.1 65.3a20.6 20.6 0 0 1-20.7 20.7H42.9a20.7 20.7 0 0 1-20.8-20.7V42.6a20.7 20.7 0 0 1 20.8-20.7h24.8a20.6 20.6 0 0 1 20.7 20.7z"/><path fill="#44331c" d="M67.7 28.1H42.9a14.5 14.5 0 0 0-14.5 14.5v24.8a14.5 14.5 0 0 0 14.5 14.5h24.8a14.5 14.5 0 0 0 14.5-14.5V42.6a14.5 14.5 0 0 0-14.5-14.5zM71.9 55a16.6 16.6 0 1 1-16.6-16.6A16.6 16.6 0 0 1 71.9 55zm1.2-15.6a2.2 2.2 0 1 1 2.2-2.2 2.2 2.2 0 0 1-2.2 2.2z"/><path fill="#44331c" d="M55.3 44.6a10.4 10.4 0 0 0 0 20.8 10.4 10.4 0 1 0 0-20.8z"/></symbol><symbol id="twt-icon" viewBox="0 0 110 110"><path fill="#44331c" d="M55 2.1A52.9 52.9 0 1 0 107.9 55 52.9 52.9 0 0 0 55 2.1zM88 37a26.3 26.3 0 0 1-4.5 4.3c-.2.1-.3.5-.3.7a40.3 40.3 0 0 1-1.4 11.5 40.7 40.7 0 0 1-3.8 9.1 38 38 0 0 1-4.6 6.5 36.4 36.4 0 0 1-13.9 10 37 37 0 0 1-13.2 2.7 34.6 34.6 0 0 1-9.6-.7 37.9 37.9 0 0 1-9.1-3.2l-3.3-1.8-.4-.3a27.3 27.3 0 0 0 19.9-5.6c-6.2-.5-10.4-3.6-12.6-9.4a14.7 14.7 0 0 0 5.9-.3c-6.7-2-10.3-6.4-10.6-13.3a15.2 15.2 0 0 0 6 1.5 13.4 13.4 0 0 1-5.8-9.7 12.9 12.9 0 0 1 1.7-8.3 38.8 38.8 0 0 0 27.9 14.1 21.2 21.2 0 0 1-.2-2.4 13.1 13.1 0 0 1 4.8-11.1 13.5 13.5 0 0 1 16-1 19.2 19.2 0 0 1 2.2 1.8 1 1 0 0 0 .9.2 28 28 0 0 0 7.3-2.7 1.5 1.5 0 0 1 .8-.4 14 14 0 0 1-5.6 7.2v.2l2.4-.5 2.5-.6a16.9 16.9 0 0 1 2.4-.8z"/></symbol><symbol id="fb-icon" viewBox="0 0 110 110"><path fill="#44331c" d="M107.9 55A52.9 52.9 0 1 0 55 107.9h1.8V71.5H45.2V57.1h11.6V45.5a17.3 17.3 0 0 1 17.3-17.3h11.6v14.5h-5.8c-3.2 0-5.8-.3-5.8 2.8v11.6h14.4l-5.8 14.4h-8.6v32.9A53 53 0 0 0 107.9 55z"/><path fill="#fff" d="M82.7 71.5l5.8-14.4H74.1V45.5c0-3.1 2.6-2.8 5.8-2.8h5.8V28.2H74.1a17.3 17.3 0 0 0-17.3 17.3v11.6H45.2v14.4h11.6v36.4a54.9 54.9 0 0 0 17.3-3.5V71.5z"/></symbol></svg>