<svg id="Layer_1" data-name="Layer 1" xmlns="http://www.w3.org/2000/svg" width="110" height="110" viewBox="0 0 110 110"><title>twt-icon</title><path d="M55,2.1A52.9,52.9,0,1,0,107.9,55,52.9,52.9,0,0,0,55,2.1ZM88,37a26.3,26.3,0,0,1-4.5,4.3c-.2.1-.3.5-.3.7a40.3,40.3,0,0,1-1.4,11.5A40.7,40.7,0,0,1,78,62.6a38,38,0,0,1-4.6,6.5,36.4,36.4,0,0,1-13.9,10,37,37,0,0,1-13.2,2.7,34.6,34.6,0,0,1-9.6-.7,37.9,37.9,0,0,1-9.1-3.2l-3.3-1.8-.4-.3a27.3,27.3,0,0,0,19.9-5.6c-6.2-.5-10.4-3.6-12.6-9.4a14.7,14.7,0,0,0,5.9-.3c-6.7-2-10.3-6.4-10.6-13.3a15.2,15.2,0,0,0,6,1.5A13.4,13.4,0,0,1,26.7,39a12.9,12.9,0,0,1,1.7-8.3A38.8,38.8,0,0,0,56.3,44.8a21.2,21.2,0,0,1-.2-2.4,13.1,13.1,0,0,1,4.8-11.1,13.5,13.5,0,0,1,16-1,19.2,19.2,0,0,1,2.2,1.8,1,1,0,0,0,.9.2,28,28,0,0,0,7.3-2.7,1.5,1.5,0,0,1,.8-.4,14,14,0,0,1-5.6,7.2v.2l2.4-.5,2.5-.6a16.9,16.9,0,0,1,2.4-.8Z" fill="#44331c"/></svg>